<svg width="53" height="51" viewBox="0 0 53 51" fill="none" xmlns="http://www.w3.org/2000/svg">
<path d="M5.65186 10.6053L21.3066 21.7897C24.4133 24.0092 28.5866 24.0092 31.6932 21.7897L47.348 10.6053M1.81452 34.0347C0.422828 28.43 0.422828 22.57 1.81452 16.9654C3.6363 9.62872 9.45371 3.95612 16.8327 2.32105L18.0619 2.04867C23.6199 0.817109 29.38 0.81711 34.9379 2.04867L36.1672 2.32105C43.5461 3.95612 49.3635 9.62873 51.1853 16.9654C52.577 22.57 52.577 28.43 51.1853 34.0346C49.3635 41.3713 43.5461 47.0439 36.1671 48.679L34.9379 48.9513C29.38 50.1829 23.6199 50.1829 18.0619 48.9513L16.8327 48.6789C9.4537 47.0439 3.6363 41.3713 1.81452 34.0347Z" stroke="white" stroke-width="1.5" stroke-linecap="round"/>
</svg>
