<svg width="64" height="64" viewBox="0 0 64 64" fill="none" xmlns="http://www.w3.org/2000/svg">
<path d="M34.6667 8.67308C40.434 7.02985 46.7808 8.39099 51.195 12.8051C55.6091 17.2193 56.9702 23.5661 55.327 29.3333M39.8318 15.9042C41.8917 15.4939 44.2642 16.2045 46.0299 17.9702C47.7955 19.7359 48.5062 22.1084 48.0959 24.1683" stroke="white" stroke-width="1.5" stroke-linecap="round" stroke-linejoin="round"/>
<path d="M40.4408 55.6893C42.7916 56.1036 45.2084 56.1036 47.5592 55.6893C51.3376 55.0235 54.381 52.4868 55.4293 49.1296L55.6516 48.4175C55.8828 47.6773 56 46.9117 56 46.1424C56 42.75 52.9662 40 49.2238 40H38.7762C35.0338 40 32 42.75 32 46.1424C32 46.9117 32.1172 47.6773 32.3484 48.4175L32.5707 49.1296C33.619 52.4868 36.6624 55.0235 40.4408 55.6893ZM40.4408 55.6893C24.1119 52.6638 11.3362 39.8881 8.31067 23.5592M8.31067 23.5592C7.89644 21.2084 7.89644 18.7916 8.31068 16.4408C8.97648 12.6624 11.5132 9.61901 14.8704 8.57071L15.5825 8.34835C16.3227 8.11722 17.0883 8 17.8576 8C21.25 8 24 11.0338 24 14.7762L24 25.2238C24 28.9662 21.25 32 17.8576 32C17.0883 32 16.3227 31.8828 15.5825 31.6516L14.8704 31.4293C11.5132 30.381 8.97647 27.3376 8.31067 23.5592Z" stroke="white" stroke-width="1.5"/>
</svg>
